<svg xmlns="http://www.w3.org/2000/svg" viewBox="0 0 620 252"><rect width="620" height="252" rx="12" fill="#faf6ee"/><g transform="translate(0 0)"><rect x="20" y="12" width="260" height="40" rx="6" fill="#2f6b4f"/><text x="150" y="39" text-anchor="middle" font-family="Nunito, sans-serif" font-weight="900" font-size="20" fill="#fff">1980</text><rect x="24" y="90" width="32" height="12" rx="3" fill="#c9a978"/><path d="M29 90a11 11 0 0 1 22 0z" fill="#3468d6"/><circle cx="40" cy="77" r="7" fill="#f2c9a5"/><rect x="74" y="90" width="32" height="12" rx="3" fill="#c9a978"/><path d="M79 90a11 11 0 0 1 22 0z" fill="#3468d6"/><circle cx="90" cy="77" r="7" fill="#f2c9a5"/><rect x="124" y="90" width="32" height="12" rx="3" fill="#c9a978"/><path d="M129 90a11 11 0 0 1 22 0z" fill="#3468d6"/><circle cx="140" cy="77" r="7" fill="#f2c9a5"/><rect x="174" y="90" width="32" height="12" rx="3" fill="#c9a978"/><path d="M179 90a11 11 0 0 1 22 0z" fill="#3468d6"/><circle cx="190" cy="77" r="7" fill="#f2c9a5"/><rect x="224" y="90" width="32" height="12" rx="3" fill="#c9a978"/><path d="M229 90a11 11 0 0 1 22 0z" fill="#3468d6"/><circle cx="240" cy="77" r="7" fill="#f2c9a5"/><rect x="24" y="128" width="32" height="12" rx="3" fill="#c9a978"/><path d="M29 128a11 11 0 0 1 22 0z" fill="#3468d6"/><circle cx="40" cy="115" r="7" fill="#f2c9a5"/><rect x="74" y="128" width="32" height="12" rx="3" fill="#c9a978"/><path d="M79 128a11 11 0 0 1 22 0z" fill="#3468d6"/><circle cx="90" cy="115" r="7" fill="#f2c9a5"/><rect x="124" y="128" width="32" height="12" rx="3" fill="#c9a978"/><path d="M129 128a11 11 0 0 1 22 0z" fill="#3468d6"/><circle cx="140" cy="115" r="7" fill="#f2c9a5"/><rect x="174" y="128" width="32" height="12" rx="3" fill="#c9a978"/><path d="M179 128a11 11 0 0 1 22 0z" fill="#3468d6"/><circle cx="190" cy="115" r="7" fill="#f2c9a5"/><rect x="224" y="128" width="32" height="12" rx="3" fill="#c9a978"/><path d="M229 128a11 11 0 0 1 22 0z" fill="#3468d6"/><circle cx="240" cy="115" r="7" fill="#f2c9a5"/><rect x="24" y="166" width="32" height="12" rx="3" fill="#c9a978"/><path d="M29 166a11 11 0 0 1 22 0z" fill="#3468d6"/><circle cx="40" cy="153" r="7" fill="#f2c9a5"/><rect x="74" y="166" width="32" height="12" rx="3" fill="#c9a978"/><path d="M79 166a11 11 0 0 1 22 0z" fill="#3468d6"/><circle cx="90" cy="153" r="7" fill="#f2c9a5"/><rect x="124" y="166" width="32" height="12" rx="3" fill="#c9a978"/><path d="M129 166a11 11 0 0 1 22 0z" fill="#3468d6"/><circle cx="140" cy="153" r="7" fill="#f2c9a5"/><rect x="174" y="166" width="32" height="12" rx="3" fill="#c9a978"/><path d="M179 166a11 11 0 0 1 22 0z" fill="#3468d6"/><circle cx="190" cy="153" r="7" fill="#f2c9a5"/><rect x="224" y="166" width="32" height="12" rx="3" fill="#c9a978"/><path d="M229 166a11 11 0 0 1 22 0z" fill="#3468d6"/><circle cx="240" cy="153" r="7" fill="#f2c9a5"/><rect x="24" y="204" width="32" height="12" rx="3" fill="#c9a978"/><path d="M29 204a11 11 0 0 1 22 0z" fill="#3468d6"/><circle cx="40" cy="191" r="7" fill="#f2c9a5"/><rect x="74" y="204" width="32" height="12" rx="3" fill="#c9a978"/><path d="M79 204a11 11 0 0 1 22 0z" fill="#3468d6"/><circle cx="90" cy="191" r="7" fill="#f2c9a5"/><rect x="124" y="204" width="32" height="12" rx="3" fill="#c9a978"/><path d="M129 204a11 11 0 0 1 22 0z" fill="#3468d6"/><circle cx="140" cy="191" r="7" fill="#f2c9a5"/><rect x="174" y="204" width="32" height="12" rx="3" fill="#c9a978"/><path d="M179 204a11 11 0 0 1 22 0z" fill="#3468d6"/><circle cx="190" cy="191" r="7" fill="#f2c9a5"/><rect x="224" y="204" width="32" height="12" rx="3" fill="#c9a978"/><path d="M229 204a11 11 0 0 1 22 0z" fill="#3468d6"/><circle cx="240" cy="191" r="7" fill="#f2c9a5"/><text x="150" y="243" text-anchor="middle" font-family="Nunito, sans-serif" font-weight="700" font-size="13" fill="#3f4a5a">about 5.7 million elementary students</text></g><path d="M310 30v200" stroke="#dfd6c4" stroke-width="2" stroke-dasharray="4 5"/><g transform="translate(320 0)"><rect x="20" y="12" width="260" height="40" rx="6" fill="#2f6b4f"/><text x="150" y="39" text-anchor="middle" font-family="Nunito, sans-serif" font-weight="900" font-size="20" fill="#fff">2023</text><rect x="24" y="90" width="32" height="12" rx="3" fill="#c9a978"/><path d="M29 90a11 11 0 0 1 22 0z" fill="#3468d6"/><circle cx="40" cy="77" r="7" fill="#f2c9a5"/><rect x="74" y="90" width="32" height="12" rx="3" fill="#e5d8c0"/><rect x="124" y="90" width="32" height="12" rx="3" fill="#c9a978"/><path d="M129 90a11 11 0 0 1 22 0z" fill="#3468d6"/><circle cx="140" cy="77" r="7" fill="#f2c9a5"/><rect x="174" y="90" width="32" height="12" rx="3" fill="#e5d8c0"/><rect x="224" y="90" width="32" height="12" rx="3" fill="#c9a978"/><path d="M229 90a11 11 0 0 1 22 0z" fill="#3468d6"/><circle cx="240" cy="77" r="7" fill="#f2c9a5"/><rect x="24" y="128" width="32" height="12" rx="3" fill="#e5d8c0"/><rect x="74" y="128" width="32" height="12" rx="3" fill="#c9a978"/><path d="M79 128a11 11 0 0 1 22 0z" fill="#3468d6"/><circle cx="90" cy="115" r="7" fill="#f2c9a5"/><rect x="124" y="128" width="32" height="12" rx="3" fill="#e5d8c0"/><rect x="174" y="128" width="32" height="12" rx="3" fill="#c9a978"/><path d="M179 128a11 11 0 0 1 22 0z" fill="#3468d6"/><circle cx="190" cy="115" r="7" fill="#f2c9a5"/><rect x="224" y="128" width="32" height="12" rx="3" fill="#e5d8c0"/><rect x="24" y="166" width="32" height="12" rx="3" fill="#c9a978"/><path d="M29 166a11 11 0 0 1 22 0z" fill="#3468d6"/><circle cx="40" cy="153" r="7" fill="#f2c9a5"/><rect x="74" y="166" width="32" height="12" rx="3" fill="#e5d8c0"/><rect x="124" y="166" width="32" height="12" rx="3" fill="#e5d8c0"/><rect x="174" y="166" width="32" height="12" rx="3" fill="#e5d8c0"/><rect x="224" y="166" width="32" height="12" rx="3" fill="#c9a978"/><path d="M229 166a11 11 0 0 1 22 0z" fill="#3468d6"/><circle cx="240" cy="153" r="7" fill="#f2c9a5"/><rect x="24" y="204" width="32" height="12" rx="3" fill="#e5d8c0"/><rect x="74" y="204" width="32" height="12" rx="3" fill="#c9a978"/><path d="M79 204a11 11 0 0 1 22 0z" fill="#3468d6"/><circle cx="90" cy="191" r="7" fill="#f2c9a5"/><rect x="124" y="204" width="32" height="12" rx="3" fill="#c9a978"/><path d="M129 204a11 11 0 0 1 22 0z" fill="#3468d6"/><circle cx="140" cy="191" r="7" fill="#f2c9a5"/><rect x="174" y="204" width="32" height="12" rx="3" fill="#e5d8c0"/><rect x="224" y="204" width="32" height="12" rx="3" fill="#e5d8c0"/><text x="150" y="243" text-anchor="middle" font-family="Nunito, sans-serif" font-weight="700" font-size="13" fill="#3f4a5a">about 2.6 million elementary students</text></g></svg>